# xmcd
# 
# Track frame offsets:
#     150
#     18977
#     40730
#     68070
#     86567
#     115985
#     134785
#     149135
#     162567
# 
# Disc length: 2450
# 
# Revision: 2
# Processed by: cddbd v1.5.2PL0 Copyright (c) Steve Scherf et al.
# Submitted via: BonkEnc v1.0.8
# 
DISCID=85099009
DTITLE=Frank Weber - As The Time Flies
DYEAR=1978
DGENRE=Rock
TTITLE0='71
TTITLE1=Regina
TTITLE2=So Many Sides
TTITLE3=As The Time Flies
TTITLE4=Complicated Times
TTITLE5=I Know, You Know
TTITLE6=Straighten Up and Fly Right
TTITLE7=Parents
TTITLE8=Shining In You
EXTD=YEAR: 1978
EXTT0=
EXTT1=
EXTT2=
EXTT3=
EXTT4=
EXTT5=
EXTT6=
EXTT7=
EXTT8=
PLAYORDER=
